<svg xmlns="http://www.w3.org/2000/svg" xmlns:xlink="http://www.w3.org/1999/xlink" x="0px" y="0px" viewBox="0 0 60 60" style="enable-background:new 0 0 60 60;" xml:space="preserve"><style type="text/css">	.st0{fill:#33A457;}	.st1{fill:#333333;}</style><g><path class="st0" d="M12.2,37.2c0.9,0.4,1.9,0.6,2.9,0.6h2.4c1.1,0,1.9,0.9,1.9,1.9c0,2.1,1.7,3.9,3.9,3.9c2.1,0,3.9-1.7,3.9-3.9   V37c0-2-0.9-3.8-2.4-5c-1.5-1.2-2.4-3.1-2.4-5v-7.5c0-1.3-0.4-2.5-1.1-3.6l-2.8-4.2l-0.2-0.5C11.9,15.1,7.7,22,7.7,30   c0,2,0.3,3.9,0.7,5.7l0.2,0.1L12.2,37.2z M12.2,37.2"></path><path class="st0" d="M52.3,30c0-9.9-6.5-18.4-15.5-21.2l-5,6.6c-0.5,0.7-0.8,1.5-0.8,2.3v8.4c0,2.1,1.7,3.9,3.9,3.9h7.7   c1.1,0,1.9-0.9,1.9-1.9c0-1.1,0.9-1.9,1.9-1.9c1.1,0,1.9,0.9,1.9,1.9V33c0,0.6-0.2,1.1-0.7,1.5l-5.4,4.6c-0.4,0.4-0.7,0.9-0.7,1.5   V49C48,45.1,52.3,38,52.3,30L52.3,30z M52.3,30"></path><path class="st1" d="M30,6.8C17.2,6.8,6.8,17.2,6.8,30S17.2,53.2,30,53.2S53.2,42.8,53.2,30S42.8,6.8,30,6.8L30,6.8z M30,51.3   C18.3,51.3,8.7,41.7,8.7,30S18.3,8.7,30,8.7S51.3,18.3,51.3,30S41.7,51.3,30,51.3L30,51.3z M30,51.3"></path><path class="st1" d="M56,15l-1.7,1c2.5,4.3,3.8,9.1,3.8,14c0,15.5-12.6,28.1-28.1,28.1S1.9,45.5,1.9,30S14.5,1.9,30,1.9   c4.4,0,8.8,1.1,12.7,3c-0.1,0.3-0.1,0.5-0.1,0.8c0,2.1,1.7,3.9,3.9,3.9c2.1,0,3.9-1.7,3.9-3.9c0-2.1-1.7-3.9-3.9-3.9   c-1.2,0-2.2,0.5-2.9,1.3C39.4,1.1,34.7,0,30,0C13.5,0,0,13.5,0,30s13.5,30,30,30s30-13.5,30-30C60,24.7,58.6,19.5,56,15L56,15z    M46.5,3.9c1.1,0,1.9,0.9,1.9,1.9c0,1.1-0.9,1.9-1.9,1.9c-1.1,0-1.9-0.9-1.9-1.9C44.5,4.7,45.4,3.9,46.5,3.9L46.5,3.9z M46.5,3.9"></path></g></svg>