<svg xmlns="http://www.w3.org/2000/svg" xmlns:xlink="http://www.w3.org/1999/xlink" x="0px" y="0px" viewBox="0 0 60 60" style="enable-background:new 0 0 60 60;" xml:space="preserve"><style type="text/css">	.st0{fill:#33A457;}	.st1{fill:#333333;}</style><g><rect x="14.5" y="48.4" class="st0" width="31" height="7.7"></rect><path class="st1" d="M30,0C13.5,0,0,13.5,0,30v30h60V30C60,13.5,46.5,0,30,0L30,0z M58.1,58.1H1.9V46.5h56.1V58.1z M29.9,10.6h0.1   l0.4,5.7l-1,0.7L29.9,10.6z M30.6,18.6l0.1,1.5l-1.1-0.8L30.6,18.6z M29.2,21.4l1.2,0.9h-1.2L29.2,21.4z M32.9,24.2v1.9h-5.8v-1.9   H32.9L32.9,24.2z M32.5,38.7H31v-1h2.5L32.5,38.7z M29,38.7h-1.5l-1-1H29V38.7z M27.7,40.6h4.6l1.9,3.9h-8.5L27.7,40.6z M24,43.7   l-1-1.4l1.9-0.4L24,43.7z M35.1,41.9l1.9,0.4l-1,1.4L35.1,41.9z M38.5,43.6l0.5,1h-1.3L38.5,43.6z M34.2,39.7l1.4-1.4l1,1.8   L34.2,39.7z M33.7,31.9h-1.9l1.5-2.3L33.7,31.9z M32.1,28.1L30,31.2l-2.1-3.1H32.1z M26.7,29.7l1.5,2.3h-1.9L26.7,29.7z M25.2,33.9   h9.7v1.9h-9.7V33.9z M24.4,38.4l1.4,1.4l-2.4,0.5L24.4,38.4z M21.5,43.6l0.7,1H21L21.5,43.6z M41.2,44.5l-4.4-8v-4.6h-1.1L34.8,27   v-4.8h-2l-0.4-5l0,0l0-0.1l-0.6-8.5H31V2.9H29v5.8h-0.9l-1,13.5h-2V27l-0.8,4.9h-1.1v4.6l-4.4,8H1.9V30C1.9,14.5,14.5,1.9,30,1.9   S58.1,14.5,58.1,30v14.5H41.2z M41.2,44.5"></path><rect x="38.7" y="5.8" class="st1" width="1.9" height="1.9"></rect><rect x="43.5" y="12.6" class="st1" width="1.9" height="1.9"></rect><rect x="37.7" y="11.6" class="st1" width="1.9" height="1.9"></rect><rect x="49.4" y="18.4" class="st1" width="1.9" height="1.9"></rect><rect x="20.3" y="8.7" class="st1" width="1.9" height="1.9"></rect><rect x="10.6" y="12.6" class="st1" width="1.9" height="1.9"></rect><rect x="24.2" y="2.9" class="st1" width="1.9" height="1.9"></rect><rect x="23.2" y="13.5" class="st1" width="1.9" height="1.9"></rect><rect x="17.4" y="19.4" class="st1" width="1.9" height="1.9"></rect><rect x="7.7" y="24.2" class="st1" width="1.9" height="1.9"></rect></g></svg>