<svg xmlns="http://www.w3.org/2000/svg" xmlns:xlink="http://www.w3.org/1999/xlink" x="0px" y="0px" viewBox="0 0 59 60" style="enable-background:new 0 0 59 60;" xml:space="preserve"><style type="text/css">	.st0{fill:#33A457;}	.st1{fill:#333333;}</style><g><path class="st0" d="M0,5.8l9.7-3.9v7.7L0,5.8z M0,5.8"></path><path class="st1" d="M55.9,4.8l-4.8,1.9h-5.6c-1.6,0-2.9,1.3-2.9,2.9v3.9c0,0.4,0.1,0.7,0.2,1c-0.7-1.2-1.8-2.1-3.1-2.6v-1.3   C39.7,4.8,34.9,0,29,0c-5.9,0-10.6,4.8-10.6,10.6v1.3c-2.3,0.8-3.9,3-3.9,5.5c0,1.5,0.6,3,1.7,4c-0.5,0.8-0.7,1.8-0.7,2.7   c0,1.4,0.5,2.6,1.3,3.7l-1.5,0.7L14.8,22c-0.2-1.8-1.5-3.2-3.2-3.5V1.9H9.7v16.6c-1.7,0.5-2.9,2-2.9,3.8v12.2   c0,2.8,2.3,5.1,5.1,5.1c0.6,0,1.2-0.1,1.8-0.3l5.7-2.2V60h1.9v-8.7h15.5V60h1.9V37.2l5.7,2.2c0.6,0.2,1.2,0.3,1.8,0.3   c2.8,0,5.1-2.3,5.1-5.1V22.4c0-1-0.4-1.9-1-2.6v-3.4h0.8l4.8,1.9H59V4.8H55.9z M44.5,9.7c0-0.5,0.4-1,1-1h4.8v5.8h-4.8   c-0.5,0-1-0.4-1-1V9.7z M43.5,17.4c0-0.8-0.2-1.6-0.5-2.3c0.3,0.5,0.9,0.9,1.5,1.1v3.3c-0.7,0.7-1.1,1.5-1.2,2.5l-0.6,6.5l-1.5-0.7   c0.9-1,1.3-2.3,1.3-3.7c0-1-0.2-1.9-0.7-2.7C43,20.4,43.5,19,43.5,17.4L43.5,17.4z M18.5,26.9c-0.7-0.7-1.1-1.7-1.1-2.7   c0-0.8,0.3-1.6,0.8-2.3l0.6-0.8L18,20.5c-1-0.7-1.6-1.9-1.6-3.1c0-1.8,1.3-3.4,3.1-3.8l0.8-0.2v-2.8c0-4.8,3.9-8.7,8.7-8.7   c4.8,0,8.7,3.9,8.7,8.7v2.8l0.8,0.2c1.8,0.4,3.1,2,3.1,3.8c0,1.2-0.6,2.3-1.6,3.1l-0.8,0.6l0.6,0.8c0.5,0.7,0.8,1.5,0.8,2.3   c0,1-0.4,2-1.1,2.7L39.4,27l-5.5-2.5v-2.1c1.8-1.4,2.9-3.6,2.9-6v-5.8h-1.9c-1.6,0-2.9-1.3-2.9-2.9H30c0,1.6-1.3,2.9-2.9,2.9h-5.8   v5.8c0,2.4,1.1,4.6,2.9,6v2.1L18.7,27L18.5,26.9z M29,22.3c-3.2,0-5.8-2.6-5.8-5.8v-3.9h3.9c1.6,0,3-0.8,3.9-1.9   c0.9,1.2,2.3,1.9,3.9,1.9v3.9C34.8,19.7,32.2,22.3,29,22.3L29,22.3z M26.1,23.6C27,24,28,24.2,29,24.2c1,0,2-0.2,2.9-0.6v2.5   c0,1.6-1.3,2.9-2.9,2.9c-1.6,0-2.9-1.3-2.9-2.9V23.6z M24.2,26.6c0.3,2.4,2.3,4.3,4.8,4.3c2.5,0,4.5-1.9,4.8-4.3l0.9,0.4l-5.4,11.6   h-0.7l-5.4-11.6L24.2,26.6z M46.2,37.7c-0.4,0-0.7-0.1-1.1-0.2l-8.4-3.1v14.9H21.3V34.4l-8.4,3.1c-0.4,0.1-0.7,0.2-1.1,0.2   c-1.7,0-3.1-1.4-3.1-3.1V22.4c0-0.7,0.4-1.4,1-1.7v1.6h1.9v-1.8c0.7,0.3,1.2,0.9,1.2,1.7l0.8,9.2l7.9-3.6l5.9,12.8h3.2l5.9-12.8   l7.9,3.6l0.8-8.4c0.5,0.7,1.3,1.1,2.3,1.1c0.7,0,1.4-0.3,1.9-0.8v11.2C49.4,36.3,48,37.7,46.2,37.7L46.2,37.7z M48.4,21.3   c0,0.5-0.4,1-1,1c-0.5,0-1-0.4-1-1v-4.8h1.9V21.3z M57.1,16.5h-0.8l-4.1-1.6V8.4l4.1-1.6h0.8V16.5z M57.1,16.5"></path><rect x="28.1" y="56.1" class="st1" width="1.9" height="3.9"></rect><path class="st0" d="M32.9,47.4h-7.7c-1.1,0-1.9-0.9-1.9-1.9v-4.8c0-1.1,0.9-1.9,1.9-1.9h7.7c1.1,0,1.9,0.9,1.9,1.9v4.8   C34.8,46.6,34,47.4,32.9,47.4L32.9,47.4z M32.9,47.4"></path></g></svg>