<svg xmlns="http://www.w3.org/2000/svg" xmlns:xlink="http://www.w3.org/1999/xlink" x="0px" y="0px" viewBox="0 0 60 60" style="enable-background:new 0 0 60 60;" xml:space="preserve"><style type="text/css">	.st0{fill:#33A457;}	.st1{fill:#333333;}</style><g><path class="st0" d="M50.3,50.3c-2.7,0-4.8-2.2-4.8-4.8c0-2.7,2.2-4.8,4.8-4.8c2.7,0,4.8,2.2,4.8,4.8C55.2,48.2,53,50.3,50.3,50.3   L50.3,50.3z M50.3,50.3"></path><path class="st1" d="M56.1,31H36.8v-5.6l15.3,3.2c1.3,0.3,2.7,0.4,4,0.4c2.1,0,3.9-1.7,3.9-3.9c0-1.6-0.9-3-2.4-3.6l-3.4-1.4v-4.7   h-5.8v2.3l-2.9-1.2v-4.9h-5.8v2.5l-2.9-1.2c-0.1-3.2-0.9-6.3-2.3-9.1l-0.8-1.5C33,0.9,31.6,0,30,0c-1.6,0-3,0.9-3.7,2.3l-0.8,1.5   c-1.4,2.8-2.2,6-2.3,9.1l-2.9,1.2v-2.5h-5.8v4.9l-2.9,1.2v-2.3H5.8v4.7l-3.4,1.4c-1.4,0.6-2.4,2-2.4,3.6C0,27.3,1.7,29,3.9,29   c1.3,0,2.7-0.1,4-0.4l15.3-3.2V31h-3.9c-1.2,0-2.2,0.5-2.9,1.3c-0.7-0.8-1.7-1.3-2.9-1.3H3.9C1.7,31,0,32.7,0,34.8v21.3   C0,58.3,1.7,60,3.9,60h9.7c1.2,0,2.2-0.5,2.9-1.3c0.7,0.8,1.7,1.3,2.9,1.3h36.8c2.1,0,3.9-1.7,3.9-3.9V34.8   C60,32.7,58.3,31,56.1,31L56.1,31z M58.1,25.2c0,1.1-0.9,1.9-2,1.9c-1.2,0-2.4-0.1-3.6-0.4l-15.7-3.3v-1.9l11.4,2.6l0.4-1.9   l-11.8-2.7V15l20.1,8.4C57.6,23.7,58.1,24.4,58.1,25.2L58.1,25.2z M50.3,17.4h1.9v1.9l-1.9-0.8V17.4z M41.6,13.5h1.9v2.2l-1.9-0.8   V13.5z M16.5,13.5h1.9v1.4l-1.9,0.8V13.5z M7.7,17.4h1.9v1.1l-1.9,0.8V17.4z M7.5,26.7c-1.2,0.2-2.4,0.4-3.6,0.4   c-1.1,0-1.9-0.9-1.9-1.9c0-0.8,0.5-1.5,1.2-1.8L23.2,15v4.6l-11.8,2.7l0.4,1.9l11.4-2.6v1.9L7.5,26.7z M25.2,13.7   c0-3.1,0.7-6.3,2.1-9.1l0.8-1.5c0.4-0.7,1.1-1.2,1.9-1.2c0.8,0,1.6,0.5,1.9,1.2l0.8,1.5c1.4,2.8,2.1,6,2.1,9.1V31h-9.7V13.7z    M56.1,58.1H19.4c-1.1,0-1.9-0.9-1.9-1.9h-1.9c0,1.1-0.9,1.9-1.9,1.9H3.9c-1.1,0-1.9-0.9-1.9-1.9v-1.9h11.6v-1.9H1.9V38.7h11.6   v-1.9H1.9v-1.9c0-1.1,0.9-1.9,1.9-1.9h9.7c1.1,0,1.9,0.9,1.9,1.9h1.9c0-1.1,0.9-1.9,1.9-1.9h36.8c1.1,0,1.9,0.9,1.9,1.9v1.9H19.4   v1.9h38.7v13.5H19.4v1.9h38.7v1.9C58.1,57.2,57.2,58.1,56.1,58.1L56.1,58.1z M56.1,58.1"></path><rect x="15.5" y="48.4" class="st1" width="1.9" height="1.9"></rect><rect x="15.5" y="44.5" class="st1" width="1.9" height="1.9"></rect><rect x="15.5" y="40.6" class="st1" width="1.9" height="1.9"></rect><rect x="15.5" y="36.8" class="st1" width="1.9" height="1.9"></rect><rect x="15.5" y="52.3" class="st1" width="1.9" height="1.9"></rect><rect x="4.8" y="40.6" class="st1" width="1.9" height="9.7"></rect><rect x="9.7" y="40.6" class="st1" width="1.9" height="9.7"></rect><rect x="19.4" y="41.6" class="st1" width="24.2" height="1.9"></rect><rect x="19.4" y="47.4" class="st1" width="24.2" height="1.9"></rect><rect x="19.4" y="43.5" class="st0" width="24.2" height="3.9"></rect></g></svg>