<svg xmlns="http://www.w3.org/2000/svg" xmlns:xlink="http://www.w3.org/1999/xlink" x="0px" y="0px" viewBox="0 0 57.8 64" style="enable-background:new 0 0 57.8 64;" xml:space="preserve"><style type="text/css">	.st0{fill:#33A457;}	.st1{fill:#333333;}</style><g><path class="st0" d="M28.3,40.2l-13.7,3.1l9.6-10.3l0.6,4.1L28.3,40.2z M28.3,40.2"></path><path class="st0" d="M29.5,30l13.7-3.1l-9.6,10.3L33,33L29.5,30z M29.5,30"></path><path class="st1" d="M32.3,6.4C32.8,5.8,33,5,33,4.1C33,1.9,31.2,0,28.9,0c-2.3,0-4.1,1.9-4.1,4.1c0,0.8,0.3,1.6,0.7,2.3   C11.1,8.1,0,20.3,0,35.1C0,51,13,64,28.9,64s28.9-13,28.9-28.9C57.8,20.3,46.7,8.1,32.3,6.4L32.3,6.4z M26.8,4.1   c0-1.1,0.9-2.1,2.1-2.1C30,2.1,31,3,31,4.1S30,6.2,28.9,6.2C27.8,6.2,26.8,5.3,26.8,4.1L26.8,4.1z M28.9,61.9   c-14.8,0-26.8-12-26.8-26.8c0-14.8,12-26.8,26.8-26.8s26.8,12,26.8,26.8C55.7,49.9,43.7,61.9,28.9,61.9L28.9,61.9z M28.9,61.9"></path><path class="st1" d="M28.9,11.4C15.8,11.4,5.2,22,5.2,35.1c0,13.1,10.7,23.7,23.7,23.7s23.7-10.6,23.7-23.7   C52.6,22,42,11.4,28.9,11.4L28.9,11.4z M28.9,56.8C17,56.8,7.2,47,7.2,35.1S17,13.4,28.9,13.4s21.7,9.7,21.7,21.7   S40.9,56.8,28.9,56.8L28.9,56.8z M28.9,56.8"></path><path class="st1" d="M28.9,28.9c-3.4,0-6.2,2.8-6.2,6.2c0,3.4,2.8,6.2,6.2,6.2c3.4,0,6.2-2.8,6.2-6.2   C35.1,31.7,32.3,28.9,28.9,28.9L28.9,28.9z M28.9,39.2c-2.3,0-4.1-1.9-4.1-4.1c0-2.3,1.9-4.1,4.1-4.1c2.3,0,4.1,1.9,4.1,4.1   C33,37.4,31.2,39.2,28.9,39.2L28.9,39.2z M28.9,39.2"></path><path class="st1" d="M26.8,18.4l3.6,5.4H33v-8.3H31v5.4l-3.6-5.4h-2.6v8.3h2.1V18.4z M26.8,18.4"></path><path class="st1" d="M48.5,33V31h-7.2v8.3h7.2v-2.1h-5.2v-1h5.2v-2.1h-5.2v-1H48.5z M48.5,33"></path><path class="st1" d="M30.5,46.5h-3.1c-1.4,0-2.6,1.2-2.6,2.6c0,1.4,1.2,2.6,2.6,2.6h3.1c0.3,0,0.5,0.2,0.5,0.5   c0,0.3-0.2,0.5-0.5,0.5h-3.1c-0.3,0-0.5-0.2-0.5-0.5v-0.5h-2.1v0.5c0,1.4,1.2,2.6,2.6,2.6h3.1c1.4,0,2.6-1.2,2.6-2.6   c0-1.4-1.2-2.6-2.6-2.6h-3.1c-0.3,0-0.5-0.2-0.5-0.5s0.2-0.5,0.5-0.5h3.1c0.3,0,0.5,0.2,0.5,0.5v0.5H33V49   C33,47.6,31.9,46.5,30.5,46.5L30.5,46.5z M30.5,46.5"></path><path class="st1" d="M14.9,34.8L14.3,31h-2.8l-0.6,3.8l-0.6-4l-2,0.3l1.2,8.1h2.8l0.7-4l0.7,4h2.8l1.2-8.1l-2-0.3L14.9,34.8z    M14.9,34.8"></path></g></svg>