<svg xmlns="http://www.w3.org/2000/svg" viewBox="0 0 143.2 25.7"><g fill="#cbd3d9"><path d="m26.6 12.7-2.5 5.5 5.5-2.5c.9-.4 1.6-1.1 2-2l2.5-5.5-5.5 2.5c-.9.4-1.6 1.1-2 2zm3.9.5c0 .8-.6 1.3-1.3 1.3-.8 0-1.3-.6-1.3-1.3s.6-1.3 1.3-1.3c.6 0 1.3.6 1.3 1.3zm31.1-6.3c-2.7 0-4.9.9-6.6 2.7-1.6 1.7-2.4 3.9-2.4 6.6s.8 4.9 2.4 6.6c1.7 1.8 3.9 2.7 6.6 2.7s4.9-.9 6.6-2.7c1.6-1.7 2.4-3.9 2.4-6.6s-.8-4.9-2.4-6.6c-1.7-1.8-3.9-2.7-6.6-2.7zm4.6 14.1c-1.1 1.3-2.7 2-4.6 2s-3.5-.7-4.6-2-1.6-2.9-1.6-4.8.5-3.6 1.6-4.8c1.1-1.3 2.7-2 4.6-2s3.5.7 4.6 2 1.6 2.9 1.6 4.8c.1 1.9-.5 3.6-1.6 4.8zm-63.5-17h14.5v-2.6h-17.2v23.8h2.7v-10.3h12.9v-2.6h-12.9zm26.4-3.3c-6.9 0-12.5 5.6-12.5 12.5s5.6 12.5 12.5 12.5 12.5-5.6 12.5-12.5-5.6-12.5-12.5-12.5zm7.5 13h2c-.3 4.8-4.1 8.7-9 9v-2c0-.3-.2-.5-.5-.5s-.5.2-.5.5v2c-4.8-.3-8.7-4.1-9-9h2c.3 0 .5-.2.5-.5s-.2-.5-.5-.5h-2c.3-4.8 4.1-8.7 9-9v2c0 .3.2.5.5.5s.5-.2.5-.5v-2c4.8.3 8.7 4.1 9 9h-2c-.3 0-.5.2-.5.5s.2.5.5.5zm57-6.5-4.3 14.7-4.6-14.7h-3l-4.6 14.7-4.2-14.7h-2.9l5.7 18h3.1l4.5-14.4 4.5 14.4h3.1l5.7-18zm-50.2 18h2.7v-25.2h-2.7zm5.2 0h2.7v-25.2h-2.7z"></path><path d="m119.9 7.4c-.8-.3-1.6-.5-2.5-.5s-1.7.1-2.4.4c-1.7.6-3 1.7-3.8 3.2-.6-1.2-1.4-2-2.4-2.7-1-.6-2.1-1-3.3-1-2.4 0-4.3 1-5.5 3v-2.6h-2.7v18h2.7v-10.8c0-1.6.5-2.8 1.4-3.7s2.1-1.3 3.4-1.3 2.4.5 3.2 1.4c.8 1 1.3 2.2 1.3 3.7v10.8h2.7v-10.9c0-1.6.5-2.8 1.4-3.7s2.1-1.3 3.4-1.3 2.4.5 3.2 1.4c.8 1 1.3 2.2 1.3 3.7v10.8h2.7v-11c0-2.2-.7-4-2-5.4-.6-.6-1.3-1.1-2.1-1.5zm23.3 8.8c0-2.7-.8-4.9-2.4-6.6-1.7-1.8-3.9-2.7-6.6-2.7s-4.9.9-6.6 2.7c-1.6 1.7-2.4 3.9-2.4 6.6 0 2.6.8 4.8 2.5 6.6s3.9 2.7 6.6 2.7c2.1 0 3.9-.5 5.2-1.5 1.4-1 2.3-2.3 3-4h-3c-1.1 2-2.8 3-5.2 3-1.8 0-3.2-.6-4.4-1.7-1.1-1.1-1.8-2.4-2-4.1h15.1v-1zm-15-1.4c.2-1.6.9-2.9 1.9-3.9 1.1-1 2.5-1.5 4.2-1.5s3 .5 4.2 1.5c1.1 1 1.7 2.3 1.9 3.9z"></path></g></svg>